<svg xmlns="http://www.w3.org/2000/svg" viewBox="0 0 200 120" width="200" height="120">
  <rect width="200" height="120" rx="16" fill="#F0FDF4"/>
  
  <!-- Wheels -->
  <circle cx="45" cy="85" r="16" fill="#064E3B"/>
  <circle cx="45" cy="85" r="8" fill="#A7F3D0"/>
  <circle cx="130" cy="85" r="18" fill="#064E3B"/>
  <circle cx="130" cy="85" r="10" fill="#A7F3D0"/>
  <circle cx="160" cy="85" r="18" fill="#064E3B"/>
  <circle cx="160" cy="85" r="10" fill="#A7F3D0"/>
  
  <!-- Cargo Bed (EV Green) -->
  <rect x="75" y="38" width="105" height="38" rx="4" fill="#059669"/>
  <rect x="79" y="42" width="97" height="30" rx="3" fill="#10B981"/>
  <path d="M95 42 V72 M120 42 V72 M145 42 V72" stroke="#047857" stroke-width="2"/>
  
  <!-- Cabin Driver Front -->
  <path d="M25 80 L35 42 C38 35, 52 35, 60 38 L75 42 V80 Z" fill="#065F46"/>
  <!-- Windshield -->
  <path d="M38 44 C42 39, 52 39, 58 42 L68 46 V62 H36 Z" fill="#6EE7B7" opacity="0.9"/>
  
  <!-- EV Bolt Logo -->
  <path d="M125 48 L115 58 H123 L119 68 L131 56 H123 Z" fill="#FBBF24"/>
  
  <!-- Headlight -->
  <circle cx="27" cy="65" r="4" fill="#FDE047"/>
  
  <text x="100" y="110" font-family="system-ui, sans-serif" font-size="11" font-weight="800" fill="#064E3B" text-anchor="middle">⚡ E-LOADER (EV)</text>
</svg>
